# xmcd
#
# Track frame offsets:
#	150
#	49625
#	91216
#
# Disc length: 1549 seconds
#
# Revision: 1
# Processed by: cddbd v1.5.2PL0 Copyright (c) Steve Scherf et al.
# Submitted via: audiograbber 1.83.01
#
DISCID=19060b03
DTITLE=Grateful Dead - 78-04-14 Cassell Coliseum, Virginia Polytechnic, Blacksb
DTITLE=urg VA
DYEAR=1900
DGENRE=
TTITLE0=Terrapin Station
TTITLE1=Around and Around
TTITLE2=US Blues
EXTD=
EXTT0=
EXTT1=
EXTT2=
PLAYORDER=
